<svg width="142" height="16" viewBox="0 0 142 16" fill="none" xmlns="http://www.w3.org/2000/svg">
<path d="M27.2734 7.54492V9.02832H20.4512V7.54492H27.2734ZM24.6621 4.75586V12.002H23.0693V4.75586H24.6621ZM30.7458 7.27832H31.7302C32.113 7.27832 32.4297 7.21224 32.6804 7.08008C32.9356 6.94792 33.1247 6.76562 33.2478 6.5332C33.3708 6.30078 33.4323 6.03418 33.4323 5.7334C33.4323 5.41895 33.3754 5.15007 33.2614 4.92676C33.1521 4.69889 32.9835 4.52344 32.7556 4.40039C32.5323 4.27734 32.2474 4.21582 31.9011 4.21582C31.6094 4.21582 31.3451 4.27507 31.1081 4.39355C30.8757 4.50749 30.6911 4.67155 30.5544 4.88574C30.4177 5.09538 30.3493 5.34603 30.3493 5.6377H28.695C28.695 5.10905 28.834 4.63965 29.112 4.22949C29.39 3.81934 29.7683 3.49805 30.2468 3.26562C30.7299 3.02865 31.2722 2.91016 31.8737 2.91016C32.5163 2.91016 33.0769 3.01725 33.5554 3.23145C34.0385 3.44108 34.4144 3.75553 34.6833 4.1748C34.9522 4.59408 35.0866 5.11361 35.0866 5.7334C35.0866 6.01595 35.0206 6.30306 34.8884 6.59473C34.7562 6.88639 34.5603 7.15299 34.3005 7.39453C34.0407 7.63151 33.7172 7.8252 33.3298 7.97559C32.9424 8.12142 32.4935 8.19434 31.9831 8.19434H30.7458V7.27832ZM30.7458 8.56348V7.66113H31.9831C32.5665 7.66113 33.0632 7.72949 33.4734 7.86621C33.8881 8.00293 34.2253 8.19206 34.4851 8.43359C34.7448 8.67057 34.934 8.94173 35.0525 9.24707C35.1755 9.55241 35.237 9.87598 35.237 10.2178C35.237 10.6826 35.1527 11.0973 34.9841 11.4619C34.82 11.8219 34.5853 12.1273 34.28 12.3779C33.9747 12.6286 33.6169 12.8177 33.2068 12.9453C32.8012 13.0729 32.3591 13.1367 31.8806 13.1367C31.4522 13.1367 31.042 13.0775 30.6501 12.959C30.2582 12.8405 29.9073 12.665 29.5974 12.4326C29.2875 12.1956 29.0414 11.9017 28.8591 11.5508C28.6814 11.1953 28.5925 10.7852 28.5925 10.3203H30.24C30.24 10.6165 30.3083 10.8786 30.445 11.1064C30.5863 11.3298 30.7823 11.5052 31.0329 11.6328C31.2881 11.7604 31.5798 11.8242 31.9079 11.8242C32.2543 11.8242 32.5528 11.7627 32.8034 11.6396C33.0541 11.5166 33.2455 11.3343 33.3777 11.0928C33.5144 10.8512 33.5827 10.5596 33.5827 10.2178C33.5827 9.8304 33.5075 9.51595 33.3571 9.27441C33.2068 9.03288 32.9926 8.85514 32.7146 8.74121C32.4366 8.62272 32.1085 8.56348 31.7302 8.56348H30.7458ZM43.5561 10.2861C43.5561 10.9059 43.4125 11.4277 43.1254 11.8516C42.8383 12.2754 42.4464 12.5967 41.9496 12.8154C41.4575 13.0296 40.9015 13.1367 40.2817 13.1367C39.6619 13.1367 39.1036 13.0296 38.6069 12.8154C38.1101 12.5967 37.7182 12.2754 37.4311 11.8516C37.144 11.4277 37.0004 10.9059 37.0004 10.2861C37.0004 9.87598 37.0802 9.50456 37.2397 9.17188C37.3992 8.83464 37.6248 8.54525 37.9164 8.30371C38.2127 8.05762 38.559 7.86849 38.9555 7.73633C39.3565 7.60417 39.794 7.53809 40.268 7.53809C40.8969 7.53809 41.4597 7.6543 41.9565 7.88672C42.4532 8.11914 42.8429 8.44043 43.1254 8.85059C43.4125 9.26074 43.5561 9.73926 43.5561 10.2861ZM41.9018 10.2041C41.9018 9.87142 41.8334 9.57975 41.6967 9.3291C41.56 9.07845 41.3686 8.88477 41.1225 8.74805C40.8764 8.61133 40.5916 8.54297 40.268 8.54297C39.9399 8.54297 39.6551 8.61133 39.4135 8.74805C39.172 8.88477 38.9829 9.07845 38.8461 9.3291C38.714 9.57975 38.6479 9.87142 38.6479 10.2041C38.6479 10.5413 38.714 10.833 38.8461 11.0791C38.9783 11.3206 39.1674 11.5052 39.4135 11.6328C39.6596 11.7604 39.949 11.8242 40.2817 11.8242C40.6144 11.8242 40.9015 11.7604 41.143 11.6328C41.3845 11.5052 41.5714 11.3206 41.7036 11.0791C41.8357 10.833 41.9018 10.5413 41.9018 10.2041ZM43.3305 5.66504C43.3305 6.16178 43.1983 6.60384 42.934 6.99121C42.6743 7.37858 42.3142 7.68392 41.8539 7.90723C41.3937 8.12598 40.8696 8.23535 40.2817 8.23535C39.6892 8.23535 39.1606 8.12598 38.6957 7.90723C38.2355 7.68392 37.8732 7.37858 37.6088 6.99121C37.3491 6.60384 37.2192 6.16178 37.2192 5.66504C37.2192 5.07259 37.3491 4.57357 37.6088 4.16797C37.8732 3.75781 38.2355 3.44564 38.6957 3.23145C39.156 3.01725 39.6824 2.91016 40.2748 2.91016C40.8673 2.91016 41.3937 3.01725 41.8539 3.23145C42.3142 3.44564 42.6743 3.75781 42.934 4.16797C43.1983 4.57357 43.3305 5.07259 43.3305 5.66504ZM41.683 5.71973C41.683 5.4235 41.6238 5.16374 41.5053 4.94043C41.3914 4.71257 41.2296 4.53483 41.02 4.40723C40.8103 4.27962 40.562 4.21582 40.2748 4.21582C39.9877 4.21582 39.7394 4.27734 39.5297 4.40039C39.3201 4.52344 39.1583 4.69661 39.0444 4.91992C38.9304 5.14323 38.8735 5.40983 38.8735 5.71973C38.8735 6.02507 38.9304 6.29167 39.0444 6.51953C39.1583 6.74284 39.3201 6.91829 39.5297 7.0459C39.7439 7.1735 39.9946 7.2373 40.2817 7.2373C40.5688 7.2373 40.8172 7.1735 41.0268 7.0459C41.2364 6.91829 41.3982 6.74284 41.5121 6.51953C41.6261 6.29167 41.683 6.02507 41.683 5.71973ZM55.5389 7.18945V8.81641C55.5389 9.5957 55.4615 10.2611 55.3065 10.8125C55.1561 11.3594 54.9374 11.8037 54.6503 12.1455C54.3632 12.4873 54.0191 12.738 53.618 12.8975C53.2216 13.057 52.7772 13.1367 52.285 13.1367C51.8931 13.1367 51.5285 13.0866 51.1913 12.9863C50.8586 12.8861 50.5578 12.7288 50.2889 12.5146C50.0201 12.3005 49.7899 12.0247 49.5985 11.6875C49.4117 11.3457 49.2658 10.9378 49.161 10.4639C49.0608 9.98991 49.0106 9.44076 49.0106 8.81641V7.18945C49.0106 6.4056 49.0881 5.74479 49.243 5.20703C49.398 4.66471 49.619 4.22493 49.9061 3.8877C50.1932 3.5459 50.535 3.29753 50.9315 3.14258C51.3326 2.98763 51.7792 2.91016 52.2714 2.91016C52.6679 2.91016 53.0324 2.96029 53.3651 3.06055C53.7024 3.15625 54.0031 3.30892 54.2675 3.51855C54.5363 3.72819 54.7642 4.00163 54.9511 4.33887C55.1425 4.67155 55.2883 5.07487 55.3886 5.54883C55.4888 6.01823 55.5389 6.5651 55.5389 7.18945ZM53.8915 9.04883V6.94336C53.8915 6.54688 53.8687 6.19824 53.8231 5.89746C53.7776 5.59212 53.7092 5.33464 53.618 5.125C53.5315 4.91081 53.4221 4.73763 53.2899 4.60547C53.1578 4.46875 53.0074 4.37077 52.8388 4.31152C52.6701 4.24772 52.481 4.21582 52.2714 4.21582C52.0162 4.21582 51.7883 4.26595 51.5878 4.36621C51.3873 4.46191 51.2186 4.61686 51.0819 4.83105C50.9452 5.04525 50.8404 5.3278 50.7675 5.67871C50.6991 6.02507 50.6649 6.44661 50.6649 6.94336V9.04883C50.6649 9.44987 50.6877 9.80306 50.7333 10.1084C50.7789 10.4137 50.8472 10.6758 50.9384 10.8945C51.0295 11.1087 51.1389 11.2865 51.2665 11.4277C51.3986 11.5645 51.549 11.6647 51.7177 11.7285C51.8908 11.7923 52.08 11.8242 52.285 11.8242C52.5448 11.8242 52.7749 11.7741 52.9755 11.6738C53.176 11.5736 53.3446 11.4141 53.4813 11.1953C53.618 10.972 53.7206 10.6826 53.7889 10.3271C53.8573 9.97168 53.8915 9.54557 53.8915 9.04883ZM58.6148 11.7012H58.7516C59.3805 11.7012 59.9046 11.6191 60.3238 11.4551C60.7477 11.2865 61.0849 11.054 61.3355 10.7578C61.5862 10.4616 61.7662 10.113 61.8756 9.71191C61.985 9.31087 62.0396 8.87565 62.0396 8.40625V6.69043C62.0396 6.28483 61.9964 5.92936 61.9098 5.62402C61.8277 5.31413 61.7092 5.05664 61.5543 4.85156C61.4039 4.64193 61.2285 4.4847 61.0279 4.37988C60.832 4.27507 60.6201 4.22266 60.3922 4.22266C60.1415 4.22266 59.916 4.27962 59.7154 4.39355C59.5195 4.50293 59.3531 4.6556 59.2164 4.85156C59.0842 5.04297 58.9817 5.26855 58.9088 5.52832C58.8404 5.78353 58.8063 6.05697 58.8063 6.34863C58.8063 6.62207 58.8382 6.88639 58.902 7.1416C58.9703 7.39225 59.0706 7.61556 59.2027 7.81152C59.3349 8.00749 59.5012 8.16243 59.7018 8.27637C59.9023 8.3903 60.137 8.44727 60.4059 8.44727C60.6611 8.44727 60.8958 8.39941 61.11 8.30371C61.3242 8.20345 61.511 8.06901 61.6705 7.90039C61.83 7.73177 61.9553 7.54264 62.0465 7.33301C62.1376 7.12337 62.1878 6.90918 62.1969 6.69043L62.8258 6.88184C62.8258 7.22819 62.7529 7.56999 62.607 7.90723C62.4658 8.23991 62.2675 8.54525 62.0123 8.82324C61.7617 9.09668 61.4677 9.31543 61.1305 9.47949C60.7978 9.64355 60.4355 9.72559 60.0436 9.72559C59.5696 9.72559 59.1503 9.63672 58.7857 9.45898C58.4257 9.27669 58.1249 9.0306 57.8834 8.7207C57.6464 8.41081 57.4687 8.05534 57.3502 7.6543C57.2317 7.25326 57.1725 6.83171 57.1725 6.38965C57.1725 5.91113 57.2454 5.46224 57.3912 5.04297C57.537 4.6237 57.749 4.25456 58.027 3.93555C58.3049 3.61198 58.6422 3.36133 59.0387 3.18359C59.4397 3.0013 59.8932 2.91016 60.399 2.91016C60.9368 2.91016 61.4085 3.01497 61.8141 3.22461C62.2197 3.43424 62.5615 3.72363 62.8395 4.09277C63.1174 4.46191 63.3271 4.8903 63.4684 5.37793C63.6096 5.86556 63.6803 6.38965 63.6803 6.9502V7.53125C63.6803 8.11914 63.6279 8.68652 63.523 9.2334C63.4182 9.77572 63.2473 10.2793 63.0104 10.7441C62.7779 11.2044 62.4703 11.61 62.0875 11.9609C61.7092 12.3073 61.2444 12.5785 60.693 12.7744C60.1461 12.9658 59.5035 13.0615 58.7652 13.0615H58.6148V11.7012ZM70.5023 2.98535H70.7073V4.33203H70.5911C70.0032 4.33203 69.4951 4.42318 69.0667 4.60547C68.6429 4.78776 68.2943 5.03841 68.0208 5.35742C67.7474 5.67643 67.5423 6.05013 67.4056 6.47852C67.2734 6.90234 67.2073 7.35352 67.2073 7.83203V9.39746C67.2073 9.79395 67.2506 10.1449 67.3372 10.4502C67.4238 10.751 67.5446 11.0039 67.6995 11.209C67.859 11.4095 68.0413 11.5622 68.2464 11.667C68.4515 11.7718 68.6725 11.8242 68.9095 11.8242C69.1556 11.8242 69.3789 11.7741 69.5794 11.6738C69.7799 11.569 69.9508 11.4255 70.0921 11.2432C70.2334 11.0609 70.3405 10.8444 70.4134 10.5938C70.4863 10.3431 70.5228 10.0697 70.5228 9.77344C70.5228 9.49089 70.4863 9.22656 70.4134 8.98047C70.345 8.72982 70.2425 8.51107 70.1058 8.32422C69.9691 8.13281 69.7982 7.9847 69.5931 7.87988C69.3926 7.77051 69.1601 7.71582 68.8958 7.71582C68.5677 7.71582 68.2692 7.79329 68.0003 7.94824C67.736 8.10319 67.5218 8.30599 67.3577 8.55664C67.1982 8.80273 67.1116 9.06478 67.098 9.34277L66.4691 9.1377C66.5055 8.71387 66.5989 8.33333 66.7493 7.99609C66.9043 7.65885 67.1071 7.37174 67.3577 7.13477C67.6084 6.89779 67.8978 6.71777 68.2259 6.59473C68.5586 6.46712 68.9232 6.40332 69.3196 6.40332C69.8027 6.40332 70.222 6.49447 70.5775 6.67676C70.9329 6.85905 71.2269 7.10742 71.4593 7.42188C71.6963 7.73177 71.8717 8.08724 71.9857 8.48828C72.1042 8.88477 72.1634 9.29948 72.1634 9.73242C72.1634 10.2109 72.0905 10.6576 71.9446 11.0723C71.7988 11.4824 71.5846 11.8424 71.3021 12.1523C71.0241 12.4622 70.6846 12.7038 70.2835 12.877C69.887 13.0501 69.4359 13.1367 68.93 13.1367C68.3968 13.1367 67.9206 13.0342 67.5013 12.8291C67.0866 12.624 66.7334 12.3415 66.4417 11.9814C66.1546 11.6214 65.9359 11.2067 65.7855 10.7373C65.6351 10.2679 65.5599 9.77116 65.5599 9.24707V8.56348C65.5599 7.80697 65.6556 7.09375 65.847 6.42383C66.0384 5.74935 66.3323 5.15462 66.7288 4.63965C67.1299 4.12467 67.6426 3.72135 68.2669 3.42969C68.8913 3.13346 69.6364 2.98535 70.5023 2.98535ZM82.0271 3.0127V13H80.3797V4.96777L77.9392 5.79492V4.43457L81.8289 3.0127H82.0271ZM90.2641 3.0127V13H88.6167V4.96777L86.1762 5.79492V4.43457L90.0659 3.0127H90.2641ZM98.5012 3.0127V13H96.8537V4.96777L94.4133 5.79492V4.43457L98.3029 3.0127H98.5012ZM110.505 3.0127V13H108.857V4.96777L106.417 5.79492V4.43457L110.306 3.0127H110.505ZM118.742 3.0127V13H117.094V4.96777L114.654 5.79492V4.43457L118.543 3.0127H118.742ZM130.745 3.0127V13H129.097V4.96777L126.657 5.79492V4.43457L130.547 3.0127H130.745ZM138.982 3.0127V13H137.334V4.96777L134.894 5.79492V4.43457L138.784 3.0127H138.982Z" fill="#757575"/>
<path d="M8.5 0H1.5C0.672848 0 0 0.672848 0 1.5V14.5C0 15.3272 0.672848 16 1.5 16H8.5C9.32715 16 10 15.3272 10 14.5V1.5C10 0.672848 9.32715 0 8.5 0ZM1.5 1H8.5C8.77588 1 9 1.22412 9 1.5V12H1V1.5C1 1.22412 1.22412 1 1.5 1ZM8.5 15H1.5C1.22412 15 1 14.7759 1 14.5V13H9V14.5C9 14.7759 8.77588 15 8.5 15Z" fill="#757575"/>
<path d="M2.35355 13.7389C2.54882 13.9213 2.54882 14.2169 2.35355 14.3992C2.15828 14.5816 1.84172 14.5816 1.64645 14.3992C1.45118 14.2169 1.45118 13.9213 1.64645 13.7389C1.84172 13.5566 2.15828 13.5566 2.35355 13.7389Z" fill="#757575"/>
</svg>
